# xmcd CD database file
#
# Track frame offsets:
#	150
#	23256
#	43710
#	65908
#	91307
#	112856
#	129936
#	160017
#
# Disc length: 2429 seconds
#
# Revision: 0
# Processed by: cddbd v1.5.2PL0 Copyright (c) Steve Scherf et al.
# Submitted via: CDex 1.70beta3
#
DISCID=57097b08
DTITLE=Kondo Toshinori - Blue in Amsterdam
DYEAR=2018
DGENRE=Jazz
TTITLE0=Where am I ?
TTITLE1=Crack of the Sky
TTITLE2=Central Station to Dam Square
TTITLE3=Free Mumbling
TTITLE4=Playing here Alone
TTITLE5=Shadow of Spirit
TTITLE6=Spirit Flies
TTITLE7=Stillness is my dear friend
EXTD=YEAR: 2018
EXTT0=
EXTT1=
EXTT2=
EXTT3=
EXTT4=
EXTT5=
EXTT6=
EXTT7=
PLAYORDER=
